<svg width="84" height="16" viewBox="0 0 84 16" fill="none" xmlns="http://www.w3.org/2000/svg">
<path d="M14.3471 7.264C14.3471 7.264 14.2791 7.224 14.1431 7.144C14.0071 7.064 13.8271 6.976 13.6031 6.88C13.3791 6.776 13.1351 6.684 12.8711 6.604C12.6071 6.524 12.3471 6.484 12.0911 6.484C11.8911 6.484 11.7271 6.516 11.5991 6.58C11.4711 6.644 11.4071 6.752 11.4071 6.904C11.4071 7.048 11.4711 7.164 11.5991 7.252C11.7271 7.34 11.9071 7.42 12.1391 7.492C12.3791 7.564 12.6631 7.652 12.9911 7.756C13.5191 7.916 13.9751 8.1 14.3591 8.308C14.7431 8.516 15.0391 8.784 15.2471 9.112C15.4551 9.432 15.5591 9.86 15.5591 10.396C15.5591 10.908 15.4671 11.34 15.2831 11.692C15.0991 12.036 14.8511 12.312 14.5391 12.52C14.2271 12.728 13.8791 12.88 13.4951 12.976C13.1111 13.064 12.7191 13.108 12.3191 13.108C11.9111 13.108 11.4831 13.068 11.0351 12.988C10.5951 12.9 10.1671 12.784 9.75108 12.64C9.33508 12.488 8.95508 12.312 8.61108 12.112L9.61908 10.06C9.61908 10.06 9.69908 10.108 9.85908 10.204C10.0191 10.3 10.2311 10.408 10.4951 10.528C10.7591 10.648 11.0511 10.756 11.3711 10.852C11.6991 10.948 12.0271 10.996 12.3551 10.996C12.6111 10.996 12.7871 10.964 12.8831 10.9C12.9871 10.828 13.0391 10.736 13.0391 10.624C13.0391 10.456 12.9511 10.328 12.7751 10.24C12.5991 10.144 12.3671 10.056 12.0791 9.976C11.7991 9.888 11.4871 9.788 11.1431 9.676C10.6471 9.508 10.2391 9.32 9.91908 9.112C9.59908 8.896 9.36308 8.644 9.21108 8.356C9.05908 8.06 8.98308 7.704 8.98308 7.288C8.98308 6.656 9.13108 6.128 9.42708 5.704C9.72308 5.28 10.1111 4.96 10.5911 4.744C11.0791 4.52 11.6031 4.408 12.1631 4.408C12.5791 4.408 12.9791 4.46 13.3631 4.564C13.7551 4.66 14.1191 4.78 14.4551 4.924C14.7991 5.068 15.0991 5.204 15.3551 5.332L14.3471 7.264ZM20.4333 13.06C19.7853 13.06 19.1973 12.94 18.6693 12.7C18.1413 12.46 17.6853 12.136 17.3013 11.728C16.9253 11.312 16.6333 10.848 16.4253 10.336C16.2253 9.816 16.1253 9.28 16.1253 8.728C16.1253 8.16 16.2333 7.62 16.4493 7.108C16.6653 6.588 16.9653 6.128 17.3493 5.728C17.7413 5.328 18.2013 5.012 18.7293 4.78C19.2653 4.54 19.8493 4.42 20.4813 4.42C21.1293 4.42 21.7173 4.544 22.2453 4.792C22.7733 5.04 23.2253 5.372 23.6013 5.788C23.9773 6.204 24.2653 6.672 24.4653 7.192C24.6733 7.704 24.7773 8.232 24.7773 8.776C24.7773 9.336 24.6693 9.872 24.4533 10.384C24.2453 10.896 23.9453 11.356 23.5533 11.764C23.1693 12.164 22.7133 12.48 22.1853 12.712C21.6573 12.944 21.0733 13.06 20.4333 13.06ZM20.4573 10.984C20.7933 10.984 21.0853 10.92 21.3333 10.792C21.5813 10.664 21.7813 10.492 21.9333 10.276C22.0933 10.06 22.2093 9.82 22.2813 9.556C22.3613 9.284 22.4013 9.008 22.4013 8.728C22.4013 8.44 22.3613 8.164 22.2813 7.9C22.2013 7.628 22.0813 7.388 21.9213 7.18C21.7613 6.972 21.5573 6.808 21.3093 6.688C21.0613 6.56 20.7733 6.496 20.4453 6.496C20.1093 6.496 19.8173 6.56 19.5693 6.688C19.3293 6.816 19.1293 6.988 18.9693 7.204C18.8093 7.42 18.6893 7.664 18.6093 7.936C18.5373 8.2 18.5013 8.472 18.5013 8.752C18.5013 9.04 18.5413 9.316 18.6213 9.58C18.7013 9.844 18.8213 10.084 18.9813 10.3C19.1413 10.508 19.3413 10.676 19.5813 10.804C19.8293 10.924 20.1213 10.984 20.4573 10.984ZM19.4973 9.4H21.6813L24.9933 13H22.8093L19.4973 9.4ZM25.7691 13V4.48H28.1091V10.96H31.9731V13H25.7691ZM48.609 13V4.48H54.453V6.52H50.949V7.936H53.805V9.832H50.949V13H48.609ZM62.9067 4.48V13H60.5667V9.664H57.7107V13H55.3707V4.48H57.7107V7.624H60.5667V4.48H62.9067ZM64.3707 13V4.48H66.7107V13H64.3707ZM68.1793 13V4.48H72.0913C72.5073 4.48 72.8913 4.564 73.2433 4.732C73.5953 4.9 73.8993 5.128 74.1553 5.416C74.4113 5.696 74.6073 6.012 74.7433 6.364C74.8873 6.716 74.9593 7.072 74.9593 7.432C74.9593 7.76 74.9113 8.076 74.8153 8.38C74.7193 8.684 74.5793 8.964 74.3953 9.22C74.2113 9.468 73.9913 9.684 73.7353 9.868L75.5353 13H72.9673L71.4673 10.384H70.5193V13H68.1793ZM70.5193 8.344H71.9953C72.0913 8.344 72.1833 8.308 72.2713 8.236C72.3593 8.164 72.4313 8.06 72.4873 7.924C72.5513 7.788 72.5833 7.624 72.5833 7.432C72.5833 7.232 72.5473 7.068 72.4753 6.94C72.4113 6.804 72.3273 6.7 72.2233 6.628C72.1273 6.556 72.0313 6.52 71.9353 6.52H70.5193V8.344Z" fill="black"/>
<path d="M36.2428 11.35C35.8628 11.31 35.5594 11.1433 35.3328 10.85C35.1061 10.5567 34.9928 10.1833 34.9928 9.73C34.9928 9.46333 35.0328 9.18667 35.1128 8.9C35.1928 8.61333 35.3061 8.33667 35.4528 8.07C35.5994 7.79667 35.7728 7.54 35.9728 7.3C36.1728 7.06 36.3894 6.85333 36.6228 6.68C36.9894 6.40667 37.3328 6.27 37.6528 6.27C37.8661 6.38333 38.0761 6.62 38.2828 6.98C38.3161 6.98 38.3461 6.98 38.3728 6.98C38.3994 6.97333 38.4294 6.97 38.4628 6.97C38.8161 6.97 38.9928 7.28333 38.9928 7.91C38.9928 8.33 38.9228 8.73 38.7828 9.11C38.6494 9.48333 38.4594 9.82333 38.2128 10.13C37.9728 10.4367 37.6828 10.6967 37.3428 10.91C37.0094 11.1167 36.6428 11.2633 36.2428 11.35ZM36.7528 8.2C36.6394 8.35333 36.5328 8.52 36.4328 8.7C36.3328 8.88 36.2461 9.06333 36.1728 9.25C36.0994 9.43 36.0428 9.60667 36.0028 9.78C35.9628 9.94667 35.9428 10.0967 35.9428 10.23C35.9428 10.39 35.9694 10.5433 36.0228 10.69C36.0761 10.8367 36.1361 10.92 36.2028 10.94C36.5028 10.8733 36.7761 10.75 37.0228 10.57C37.2761 10.3833 37.4928 10.1533 37.6728 9.88C37.8594 9.60667 38.0028 9.29667 38.1028 8.95C38.2094 8.60333 38.2628 8.23333 38.2628 7.84C38.2628 7.66667 38.2528 7.53 38.2328 7.43C38.2128 7.33 38.1794 7.24333 38.1328 7.17C37.8394 7.25667 37.5761 7.39667 37.3428 7.59C37.1161 7.78333 36.9194 7.98667 36.7528 8.2ZM41.0968 6.15C41.2702 6.20333 41.4335 6.32333 41.5868 6.51C41.7402 6.69 41.8535 6.89 41.9268 7.11C41.8535 7.29 41.7402 7.50667 41.5868 7.76C41.4335 8.01333 41.2802 8.27333 41.1268 8.54C40.9735 8.8 40.8335 9.05 40.7068 9.29C40.5868 9.52333 40.5168 9.71667 40.4968 9.87C40.6035 9.75667 40.7202 9.62667 40.8468 9.48C40.9802 9.32667 41.1068 9.17667 41.2268 9.03C41.3535 8.87667 41.4702 8.74 41.5768 8.62C41.6835 8.49333 41.7668 8.4 41.8268 8.34C41.9535 8.20667 42.1035 8.05333 42.2768 7.88C42.4502 7.7 42.6302 7.53333 42.8168 7.38C43.0102 7.22 43.2035 7.08667 43.3968 6.98C43.5902 6.86667 43.7668 6.81 43.9268 6.81C44.1002 6.81 44.2435 6.87 44.3568 6.99C44.4768 7.10333 44.5702 7.22333 44.6368 7.35C44.6368 7.36333 44.6102 7.38333 44.5568 7.41C44.5102 7.43 44.4402 7.49333 44.3468 7.6C44.2535 7.72 44.1468 7.88667 44.0268 8.1C43.9135 8.30667 43.8002 8.53333 43.6868 8.78C43.5802 9.02 43.4902 9.26667 43.4168 9.52C43.3435 9.77333 43.3068 10.0033 43.3068 10.21C43.3068 10.3767 43.3268 10.4833 43.3668 10.53C43.4135 10.5767 43.4768 10.6 43.5568 10.6C43.6302 10.6 43.7068 10.5833 43.7868 10.55C43.8668 10.5167 43.9302 10.5 43.9768 10.5C44.0035 10.5133 44.0235 10.5433 44.0368 10.59C44.0568 10.63 44.0668 10.6667 44.0668 10.7C44.0135 10.7467 43.9502 10.7933 43.8768 10.84C43.8035 10.8867 43.7268 10.93 43.6468 10.97C43.5668 11.01 43.4868 11.0433 43.4068 11.07C43.3335 11.0967 43.2668 11.11 43.2068 11.11C43.0135 11.11 42.8535 11.08 42.7268 11.02C42.6068 10.9667 42.5102 10.8933 42.4368 10.8C42.3702 10.7067 42.3235 10.5967 42.2968 10.47C42.2702 10.3367 42.2568 10.1967 42.2568 10.05C42.2568 9.97 42.2635 9.88 42.2768 9.78C42.2902 9.68 42.3168 9.56333 42.3568 9.43C42.3968 9.29 42.4535 9.12667 42.5268 8.94C42.6002 8.74667 42.6935 8.51667 42.8068 8.25C42.7935 8.25 42.7035 8.29667 42.5368 8.39C42.3702 8.48333 42.1902 8.62667 41.9968 8.82C41.6835 9.12 41.4002 9.41667 41.1468 9.71C40.9002 10.0033 40.6468 10.33 40.3868 10.69C40.2402 10.8967 40.1102 11.07 39.9968 11.21C39.8902 11.3567 39.7968 11.4533 39.7168 11.5C39.5768 11.42 39.4735 11.3067 39.4068 11.16C39.3402 11.02 39.2902 10.8733 39.2568 10.72C39.2568 10.5933 39.2735 10.4333 39.3068 10.24C39.3468 10.0467 39.3968 9.83333 39.4568 9.6C39.5235 9.36 39.6035 9.11 39.6968 8.85C39.7902 8.59 39.8935 8.33 40.0068 8.07C40.2602 7.48333 40.4902 7.02333 40.6968 6.69C40.9102 6.35667 41.0435 6.17667 41.0968 6.15Z" fill="black"/>
</svg>
